<svg xmlns="http://www.w3.org/2000/svg" xmlns:xlink="http://www.w3.org/1999/xlink" width="500" zoomAndPan="magnify" viewBox="0 0 375 374.999991" height="500" preserveAspectRatio="xMidYMid meet" version="1.0"><defs><g/></defs><path stroke-linecap="butt" transform="matrix(2.104911, 0, 0, 2.104911, -11.737319, 50.555365)" fill="none" stroke-linejoin="miter" d="M 18.471973 40.273807 L 17.707392 40.164316 L 17.560785 40.164316 C 16.953945 40.164316 16.326692 39.921209 15.682736 39.434994 C 15.038781 38.94878 14.717731 38.085843 14.717731 36.848038 C 14.717731 35.608377 15.391379 34.197984 16.740531 32.618716 C 18.089682 31.039447 19.917625 29.586372 22.228071 28.261345 C 24.536661 26.938174 27.409407 25.850688 30.848167 24.998885 C 34.286927 24.148938 37.914976 23.723964 41.730459 23.723964 C 49.532156 23.723964 55.626536 25.26055 60.013599 28.335577 C 64.398806 31.408748 66.592338 35.400529 66.592338 40.310922 C 66.592338 43.372959 65.913122 46.434995 64.55098 49.497031 C 63.190694 52.559068 61.368318 55.38542 59.083854 57.972377 C 56.799389 60.561189 54.114076 62.97927 51.026059 65.226619 C 47.939897 67.475824 44.707129 69.389133 41.32961 70.968401 C 34.038252 74.323651 27.064232 75.99942 20.40384 75.99942 C 17.122821 75.99942 15.057339 75.732187 14.207391 75.197723 C 13.891909 75.026991 13.581994 74.767182 13.277646 74.414584 C 12.973298 74.061986 12.737614 73.824446 12.566882 73.70382 C 12.104793 73.412463 11.874676 72.785209 11.874676 71.825771 C 11.874676 70.866333 11.971177 69.997828 12.166034 69.220257 C 12.895355 66.618454 16.16895 60.975028 21.990531 52.286268 C 27.810256 43.597508 32.677966 36.59194 36.589949 31.269564 C 36.857181 30.905831 38.230458 30.638599 40.70978 30.467867 C 41.730459 30.467867 42.435655 30.540243 42.823513 30.686849 C 43.213226 30.8316 43.408083 31.093265 43.408083 31.469988 C 43.408083 31.846712 42.775263 32.915641 41.511477 34.678631 C 40.247691 36.439766 36.189101 42.600954 29.335707 53.16034 C 22.482313 63.721582 19.056544 69.146026 19.056544 69.437383 C 19.056544 69.730596 20.13104 69.875347 22.281888 69.875347 C 24.432737 69.875347 27.08279 69.420681 30.228337 68.507637 C 33.375739 67.59645 36.335707 66.399472 39.106386 64.91856 C 41.877065 63.435792 44.525263 61.715484 47.052834 59.759492 C 49.580406 57.803501 51.744245 55.80297 53.542496 53.761613 C 57.478604 49.29104 59.447586 45.317816 59.447586 41.84194 C 59.447586 38.366065 57.862751 35.41352 54.691223 32.982449 C 51.519696 30.553233 47.175316 29.337697 41.658083 29.337697 C 37.939101 29.337697 34.427966 29.957528 31.122822 31.197189 C 27.817679 32.436849 25.544349 33.542894 24.304688 34.513467 C 23.065027 35.485895 22.445197 36.142841 22.445197 36.482449 C 22.445197 36.677306 22.591804 36.773806 22.883161 36.773806 L 24.451295 36.482449 C 24.670277 36.482449 24.779768 36.530699 24.779768 36.629056 C 24.779768 36.725556 24.57192 36.896288 24.159937 37.139395 C 23.746099 37.382502 23.412058 37.642311 23.155961 37.922534 C 22.901719 38.202757 22.263331 38.651855 21.242652 39.271686 C 20.221973 39.891516 19.297795 40.225556 18.471973 40.273807 Z M 86.530834 48.222111 C 87.260155 48.222111 88.008034 48.548728 88.772616 49.205674 C 89.539052 49.86262 89.921343 50.864741 89.921343 52.213893 C 89.921343 53.561189 89.448119 55.311189 88.499816 57.462037 C 87.551513 59.612886 86.252467 61.80085 84.598967 64.024074 C 82.945468 66.249154 81.130515 68.338761 79.148543 70.294753 C 77.168426 72.250745 75.028712 73.855994 72.733112 75.10679 C 70.435657 76.357585 68.351617 76.984839 66.480991 76.984839 C 64.608509 76.984839 63.10904 76.394701 61.97887 75.216281 C 60.8487 74.037861 60.282687 72.397351 60.282687 70.294753 C 60.282687 68.192155 60.80045 65.865007 61.832263 63.31331 C 62.865932 60.761613 64.196526 58.506841 65.824045 56.550849 C 67.45342 54.594858 69.214554 52.83929 71.111161 51.284147 C 75.071395 48.099629 78.54727 46.50737 81.536931 46.50737 C 82.873092 46.50737 83.882636 46.835843 84.561852 47.492789 C 84.804959 47.711771 84.92744 47.904772 84.92744 48.075504 L 84.92744 48.294486 C 85.267048 48.246236 85.801512 48.222111 86.530834 48.222111 Z M 82.848967 53.069407 L 82.594725 53.069407 C 81.742922 53.069407 81.317949 52.449577 81.317949 51.209916 C 79.543824 51.794486 77.684332 52.815165 75.739475 54.271952 C 73.796474 55.730595 72.057609 57.45647 70.526591 59.449577 C 67.416304 63.435792 65.837036 66.80032 65.788785 69.546874 C 65.788785 70.909016 66.286134 71.588232 67.282688 71.588232 C 68.279241 71.588232 69.762009 70.933141 71.730992 69.621105 C 73.698118 68.307213 75.648542 66.436587 77.582265 64.005516 C 79.514131 61.576301 80.959783 59.468135 81.919221 57.681019 C 82.87866 55.895759 83.359306 54.680224 83.359306 54.036268 C 83.359306 53.392313 83.188575 53.069407 82.848967 53.069407 Z M 108.146954 70.385686 C 108.146954 71.454615 108.876276 71.98908 110.334919 71.98908 C 111.11249 71.98908 112.090486 71.601222 113.268906 70.82365 C 114.447326 70.046079 115.510688 69.194276 116.458991 68.271953 C 118.986563 65.768507 120.421081 64.515855 120.760688 64.515855 C 121.393509 64.515855 121.708992 65.428899 121.708992 67.251275 C 121.708992 69.07365 121.137412 70.324446 119.996107 71.005517 C 116.520232 74.139928 113.834919 76.049526 111.938312 76.728741 C 110.869383 77.09433 109.690963 77.263206 108.403052 77.23908 C 107.115141 77.214955 105.838365 76.656366 104.574579 75.563311 C 103.310793 74.468401 102.679828 73.137807 102.679828 71.571529 C 102.679828 70.003396 103.091811 68.223703 103.919489 66.230596 C 104.74531 64.237489 105.58969 62.530171 106.452628 61.108644 C 107.315565 59.687117 108.378927 58.033617 109.642713 56.150001 C 110.906499 54.266385 111.574579 53.093532 111.646955 52.631443 L 111.574579 52.559068 C 110.772883 52.631443 108.785343 54.212567 105.613815 57.298729 C 102.442288 60.38489 99.823783 63.070203 97.7583 65.354668 C 95.692818 67.639133 93.224631 70.690034 90.357451 74.505517 C 89.555755 75.550321 88.898809 76.073651 88.388469 76.073651 C 87.87813 76.073651 87.191491 75.908486 86.328554 75.580013 C 85.465616 75.253396 84.938575 75.015856 84.743718 74.86925 C 84.548861 74.724499 84.452361 74.505517 84.452361 74.21416 C 84.452361 73.922802 84.537726 73.562781 84.706602 73.137807 C 84.877334 72.712834 85.040643 72.360236 85.198384 72.081869 C 85.357981 71.801646 85.61779 71.371105 85.983379 70.786535 C 86.347112 70.20382 87.070866 68.969726 88.152785 67.08611 C 89.232849 65.202494 90.891916 62.390988 93.12813 58.64788 C 95.364345 54.904773 96.700506 52.644433 97.13847 51.866862 C 98.060792 50.263468 98.814239 49.096183 99.398809 48.366861 C 100.491864 46.98245 102.338364 46.288388 104.940167 46.288388 C 105.522882 46.288388 105.81424 46.653977 105.81424 47.383298 C 105.81424 48.524603 104.756445 50.675451 102.642712 53.835844 L 101.111694 56.131443 C 105.316891 51.466013 108.865141 48.513468 111.756446 47.273807 C 113.166838 46.665112 114.436192 46.362619 115.566361 46.362619 C 116.696531 46.362619 117.594728 46.665112 118.264665 47.273807 C 118.932745 47.880647 119.266786 48.556151 119.266786 49.296607 C 119.266786 50.037063 119.010688 50.924126 118.500349 51.957795 C 117.990009 52.991464 117.474103 53.913787 116.950773 54.728474 C 116.429299 55.543161 115.74266 56.569407 114.890858 57.809068 C 114.04091 59.048729 113.578821 59.722377 113.506446 59.831868 C 113.434071 59.941359 113.244781 60.232716 112.942289 60.707796 C 112.637941 61.18102 112.413392 61.52805 112.266785 61.745177 C 112.122034 61.964159 111.878927 62.348305 111.537464 62.893904 C 111.197856 63.441359 110.925057 63.896025 110.717209 64.261614 C 110.511218 64.625346 110.25512 65.076301 109.952628 65.610765 C 109.64828 66.14523 109.405173 66.607319 109.223307 66.995177 C 109.04144 67.384891 108.852151 67.809864 108.657294 68.271953 C 108.317686 69.1219 108.146954 69.827097 108.146954 70.385686 Z M 137.310531 70.385686 C 137.310531 71.454615 138.039852 71.98908 139.496639 71.98908 C 140.276067 71.98908 141.254062 71.601222 142.432482 70.82365 C 143.610903 70.046079 144.674264 69.194276 145.622568 68.271953 C 148.150139 65.768507 149.582801 64.515855 149.924265 64.515855 C 150.55523 64.515855 150.870712 65.428899 150.870712 67.251275 C 150.870712 69.07365 150.300988 70.324446 149.157828 71.005517 C 145.681953 74.139928 142.996639 76.049526 141.101888 76.728741 C 140.032959 77.09433 138.852684 77.263206 137.564773 77.23908 C 136.276862 77.214955 135.001941 76.656366 133.738155 75.563311 C 132.474369 74.468401 131.841548 73.137807 131.841548 71.571529 C 131.841548 70.003396 132.255387 68.223703 133.081209 66.230596 C 133.907031 64.237489 134.751411 62.530171 135.614348 61.108644 C 136.477286 59.687117 137.540647 58.033617 138.804433 56.150001 C 140.068219 54.266385 140.7363 53.093532 140.810531 52.631443 L 140.7363 52.559068 C 139.934603 52.631443 137.948919 54.212567 134.777392 57.298729 C 131.605864 60.38489 128.985504 63.070203 126.920021 65.354668 C 124.854538 67.639133 122.388207 70.690034 119.519172 74.505517 C 118.717475 75.550321 118.062385 76.073651 117.552045 76.073651 C 117.041706 76.073651 116.355068 75.908486 115.49213 75.580013 C 114.629193 75.253396 114.100295 75.015856 113.905439 74.86925 C 113.712437 74.724499 113.614081 74.505517 113.614081 74.21416 C 113.614081 73.922802 113.699447 73.562781 113.870179 73.137807 C 114.039055 72.712834 114.204219 72.360236 114.36196 72.081869 C 114.519702 71.801646 114.781367 71.371105 115.145099 70.786535 C 115.510688 70.20382 116.232586 68.969726 117.314506 67.08611 C 118.396425 65.202494 120.055492 62.390988 122.289851 58.64788 C 124.526065 54.904773 125.864082 52.644433 126.30019 51.866862 C 127.224369 50.263468 127.977815 49.096183 128.56053 48.366861 C 129.65544 46.98245 131.501941 46.288388 134.101888 46.288388 C 134.684603 46.288388 134.977816 46.653977 134.977816 47.383298 C 134.977816 48.524603 133.920021 50.675451 131.806289 53.835844 L 130.273415 56.131443 C 134.478611 51.466013 138.026862 48.513468 140.920022 47.273807 C 142.328559 46.665112 143.597912 46.362619 144.728082 46.362619 C 145.858252 46.362619 146.758305 46.665112 147.426385 47.273807 C 148.094466 47.880647 148.428506 48.556151 148.428506 49.296607 C 148.428506 50.037063 148.174265 50.924126 147.663925 51.957795 C 147.153586 52.991464 146.635823 53.913787 146.114349 54.728474 C 145.591019 55.543161 144.904381 56.569407 144.054434 57.809068 C 143.204487 59.048729 142.742398 59.722377 142.668166 59.831868 C 142.595791 59.941359 142.408357 60.232716 142.104009 60.707796 C 141.799662 61.18102 141.575112 61.52805 141.430361 61.745177 C 141.283755 61.964159 141.040648 62.348305 140.70104 62.893904 C 140.359577 63.441359 140.086777 63.896025 139.880786 64.261614 C 139.672938 64.625346 139.418696 65.076301 139.114349 65.610765 C 138.810001 66.14523 138.568749 66.607319 138.385027 66.995177 C 138.203161 67.384891 138.015727 67.809864 137.82087 68.271953 C 137.479407 69.1219 137.310531 69.827097 137.310531 70.385686 Z M 175.259368 48.294486 C 177.105868 48.294486 178.028191 48.925451 178.028191 50.189237 C 178.028191 50.870308 177.87045 51.367657 177.554967 51.684995 C 177.239485 52.000478 176.563981 53.050849 175.532167 54.837965 C 174.498498 56.623225 173.357194 58.909545 172.104542 61.691359 C 170.853747 64.475028 170.044627 66.850426 169.680894 68.817553 C 169.608519 69.06066 169.571403 69.402123 169.571403 69.838231 C 169.571403 71.176248 169.935136 71.844329 170.664457 71.844329 C 171.393779 71.844329 172.256716 71.497298 173.25327 70.805093 C 174.249824 70.112887 175.136886 69.370575 175.914458 68.581869 C 176.69203 67.791306 177.451043 66.984042 178.193355 66.156365 C 178.933811 65.330543 179.377343 64.857319 179.523949 64.734837 C 179.6687 64.614212 179.887682 64.552971 180.179039 64.552971 C 180.641129 64.552971 180.921351 64.905569 181.017852 65.610765 C 181.116208 66.315962 181.164458 67.043427 181.164458 67.796874 C 181.164458 68.55032 181.092083 69.07365 180.945476 69.365008 C 180.24028 70.751275 178.690704 72.415909 176.296748 74.35891 C 173.902793 76.303767 171.727819 77.276196 169.771827 77.276196 C 167.815836 77.276196 166.375751 76.680491 165.451573 75.48908 C 164.52925 74.299525 164.067161 72.980066 164.067161 71.534414 C 164.067161 70.088762 164.310268 68.817553 164.796482 67.724498 C 162.77925 70.348571 160.463237 72.57365 157.850299 74.396026 C 155.239217 76.218402 153.105071 77.129589 151.453427 77.129589 C 149.799927 77.129589 148.452631 76.63224 147.405972 75.635687 C 146.06981 74.396026 145.40173 72.675718 145.40173 70.47662 C 145.40173 68.277521 145.893511 66.065431 146.87893 63.842207 C 147.862494 61.618984 149.155972 59.588761 150.761221 57.753395 C 152.364615 55.919884 154.12575 54.247827 156.046482 52.740934 C 160.080946 49.582397 163.799929 48.003129 167.201573 48.003129 C 168.513609 48.003129 169.584394 48.222111 170.410216 48.658219 C 171.236038 49.096183 171.759367 49.643638 171.978349 50.298728 C 172.561064 49.424656 173.052846 48.871634 173.453694 48.639661 C 173.854543 48.409544 174.455815 48.294486 175.259368 48.294486 Z M 170.410216 52.340086 C 166.253269 52.340086 161.951572 54.648675 157.505124 59.267711 C 155.925856 60.919355 154.47278 62.901327 153.147754 65.209917 C 151.824583 67.518507 151.16207 69.097775 151.16207 69.947722 C 151.16207 70.799525 151.405177 71.224499 151.891391 71.224499 C 152.570606 71.224499 154.467213 69.880914 157.5775 67.195601 C 160.687786 64.510288 162.755125 62.535739 163.775804 61.271953 C 164.892983 59.863416 167.105072 56.88489 170.410216 52.340086 Z M 170.410216 52.340086 " stroke="#ffffff" stroke-width="6.720003" stroke-opacity="1" stroke-miterlimit="4"/><g fill="#202020" fill-opacity="1"><g transform="translate(-9.763965, 210.528565)"><g><path d="M 36.90625 -75.203125 L 35.296875 -75.4375 L 34.984375 -75.4375 C 33.710938 -75.4375 32.394531 -75.945312 31.03125 -76.96875 C 29.675781 -77.988281 29 -79.800781 29 -82.40625 C 29 -85.019531 30.421875 -87.988281 33.265625 -91.3125 C 36.109375 -94.632812 39.957031 -97.691406 44.8125 -100.484375 C 49.675781 -103.273438 55.726562 -105.566406 62.96875 -107.359375 C 70.207031 -109.148438 77.84375 -110.046875 85.875 -110.046875 C 102.289062 -110.046875 115.113281 -106.804688 124.34375 -100.328125 C 133.582031 -93.859375 138.203125 -85.457031 138.203125 -75.125 C 138.203125 -68.675781 136.769531 -62.226562 133.90625 -55.78125 C 131.039062 -49.34375 127.203125 -43.398438 122.390625 -37.953125 C 117.585938 -32.503906 111.9375 -27.410156 105.4375 -22.671875 C 98.9375 -17.941406 92.132812 -13.914062 85.03125 -10.59375 C 69.675781 -3.53125 54.992188 0 40.984375 0 C 34.078125 0 29.726562 -0.5625 27.9375 -1.6875 C 27.269531 -2.039062 26.613281 -2.585938 25.96875 -3.328125 C 25.332031 -4.078125 24.835938 -4.578125 24.484375 -4.828125 C 23.503906 -5.441406 23.015625 -6.757812 23.015625 -8.78125 C 23.015625 -10.800781 23.222656 -12.628906 23.640625 -14.265625 C 25.171875 -19.742188 32.0625 -31.625 44.3125 -49.90625 C 56.5625 -68.195312 66.804688 -82.945312 75.046875 -94.15625 C 75.609375 -94.925781 78.5 -95.488281 83.71875 -95.84375 C 85.863281 -95.84375 87.34375 -95.6875 88.15625 -95.375 C 88.976562 -95.070312 89.390625 -94.523438 89.390625 -93.734375 C 89.390625 -92.941406 88.0625 -90.691406 85.40625 -86.984375 C 82.75 -83.273438 74.207031 -70.304688 59.78125 -48.078125 C 45.351562 -25.847656 38.140625 -14.425781 38.140625 -13.8125 C 38.140625 -13.195312 40.398438 -12.890625 44.921875 -12.890625 C 49.453125 -12.890625 55.03125 -13.847656 61.65625 -15.765625 C 68.28125 -17.679688 74.507812 -20.203125 80.34375 -23.328125 C 86.175781 -26.453125 91.75 -30.070312 97.0625 -34.1875 C 102.382812 -38.300781 106.941406 -42.507812 110.734375 -46.8125 C 119.015625 -56.21875 123.15625 -64.578125 123.15625 -71.890625 C 123.15625 -79.210938 119.816406 -85.429688 113.140625 -90.546875 C 106.472656 -95.660156 97.332031 -98.21875 85.71875 -98.21875 C 77.882812 -98.21875 70.488281 -96.910156 63.53125 -94.296875 C 56.582031 -91.691406 51.800781 -89.363281 49.1875 -87.3125 C 46.582031 -85.269531 45.28125 -83.894531 45.28125 -83.1875 C 45.28125 -82.769531 45.585938 -82.5625 46.203125 -82.5625 L 49.5 -83.1875 C 49.957031 -83.1875 50.1875 -83.082031 50.1875 -82.875 C 50.1875 -82.664062 49.75 -82.304688 48.875 -81.796875 C 48.007812 -81.285156 47.304688 -80.734375 46.765625 -80.140625 C 46.234375 -79.554688 44.890625 -78.613281 42.734375 -77.3125 C 40.585938 -76.007812 38.644531 -75.304688 36.90625 -75.203125 Z M 36.90625 -75.203125 "/></g></g></g><g fill="#202020" fill-opacity="1"><g transform="translate(113.542468, 210.528565)"><g><path d="M 56.859375 -58.46875 C 58.390625 -58.46875 59.960938 -57.773438 61.578125 -56.390625 C 63.191406 -55.015625 64 -52.90625 64 -50.0625 C 64 -47.226562 63 -43.546875 61 -39.015625 C 59.007812 -34.492188 56.273438 -29.890625 52.796875 -25.203125 C 49.316406 -20.523438 45.488281 -16.125 41.3125 -12 C 37.144531 -7.882812 32.644531 -4.507812 27.8125 -1.875 C 22.976562 0.757812 18.59375 2.078125 14.65625 2.078125 C 10.71875 2.078125 7.554688 0.835938 5.171875 -1.640625 C 2.796875 -4.128906 1.609375 -7.582031 1.609375 -12 C 1.609375 -16.425781 2.695312 -21.328125 4.875 -26.703125 C 7.050781 -32.078125 9.851562 -36.820312 13.28125 -40.9375 C 16.707031 -45.050781 20.414062 -48.75 24.40625 -52.03125 C 32.738281 -58.726562 40.050781 -62.078125 46.34375 -62.078125 C 49.15625 -62.078125 51.28125 -61.390625 52.71875 -60.015625 C 53.226562 -59.546875 53.484375 -59.132812 53.484375 -58.78125 L 53.484375 -58.3125 C 54.203125 -58.414062 55.328125 -58.46875 56.859375 -58.46875 Z M 49.109375 -48.265625 L 48.578125 -48.265625 C 46.785156 -48.265625 45.890625 -49.570312 45.890625 -52.1875 C 42.148438 -50.957031 38.234375 -48.804688 34.140625 -45.734375 C 30.054688 -42.660156 26.398438 -39.03125 23.171875 -34.84375 C 16.628906 -26.445312 13.304688 -19.359375 13.203125 -13.578125 C 13.203125 -10.710938 14.25 -9.28125 16.34375 -9.28125 C 18.4375 -9.28125 21.554688 -10.660156 25.703125 -13.421875 C 29.847656 -16.191406 33.953125 -20.132812 38.015625 -25.25 C 42.085938 -30.363281 45.132812 -34.800781 47.15625 -38.5625 C 49.175781 -42.320312 50.1875 -44.878906 50.1875 -46.234375 C 50.1875 -47.585938 49.828125 -48.265625 49.109375 -48.265625 Z M 49.109375 -48.265625 "/></g></g></g><g fill="#202020" fill-opacity="1"><g transform="translate(171.090585, 210.528565)"><g><path d="M 44.8125 -11.8125 C 44.8125 -9.5625 46.347656 -8.4375 49.421875 -8.4375 C 51.054688 -8.4375 53.113281 -9.253906 55.59375 -10.890625 C 58.070312 -12.535156 60.3125 -14.328125 62.3125 -16.265625 C 67.632812 -21.535156 70.648438 -24.171875 71.359375 -24.171875 C 72.691406 -24.171875 73.359375 -22.25 73.359375 -18.40625 C 73.359375 -14.570312 72.15625 -11.941406 69.75 -10.515625 C 62.4375 -3.910156 56.785156 0.101562 52.796875 1.53125 C 50.546875 2.300781 48.0625 2.660156 45.34375 2.609375 C 42.632812 2.554688 39.945312 1.378906 37.28125 -0.921875 C 34.625 -3.222656 33.296875 -6.019531 33.296875 -9.3125 C 33.296875 -12.613281 34.164062 -16.363281 35.90625 -20.5625 C 37.644531 -24.757812 39.421875 -28.351562 41.234375 -31.34375 C 43.054688 -34.332031 45.296875 -37.8125 47.953125 -41.78125 C 50.617188 -45.75 52.03125 -48.21875 52.1875 -49.1875 L 52.03125 -49.34375 C 50.34375 -49.1875 46.160156 -45.859375 39.484375 -39.359375 C 32.804688 -32.867188 27.289062 -27.21875 22.9375 -22.40625 C 18.59375 -17.59375 13.398438 -11.171875 7.359375 -3.140625 C 5.671875 -0.941406 4.289062 0.15625 3.21875 0.15625 C 2.144531 0.15625 0.703125 -0.1875 -1.109375 -0.875 C -2.929688 -1.570312 -4.046875 -2.070312 -4.453125 -2.375 C -4.859375 -2.6875 -5.0625 -3.148438 -5.0625 -3.765625 C -5.0625 -4.378906 -4.878906 -5.128906 -4.515625 -6.015625 C -4.160156 -6.910156 -3.816406 -7.648438 -3.484375 -8.234375 C -3.160156 -8.828125 -2.613281 -9.738281 -1.84375 -10.96875 C -1.070312 -12.195312 0.445312 -14.789062 2.71875 -18.75 C 5 -22.71875 8.492188 -28.640625 13.203125 -36.515625 C 17.910156 -44.398438 20.722656 -49.160156 21.640625 -50.796875 C 23.585938 -54.171875 25.171875 -56.628906 26.390625 -58.171875 C 28.691406 -61.085938 32.582031 -62.546875 38.0625 -62.546875 C 39.289062 -62.546875 39.90625 -61.773438 39.90625 -60.234375 C 39.90625 -57.828125 37.679688 -53.300781 33.234375 -46.65625 L 30 -41.828125 C 38.851562 -51.648438 46.320312 -57.863281 52.40625 -60.46875 C 55.375 -61.75 58.046875 -62.390625 60.421875 -62.390625 C 62.804688 -62.390625 64.703125 -61.75 66.109375 -60.46875 C 67.515625 -59.1875 68.21875 -57.765625 68.21875 -56.203125 C 68.21875 -54.648438 67.679688 -52.785156 66.609375 -50.609375 C 65.535156 -48.429688 64.445312 -46.484375 63.34375 -44.765625 C 62.25 -43.054688 60.804688 -40.894531 59.015625 -38.28125 C 57.222656 -35.675781 56.25 -34.257812 56.09375 -34.03125 C 55.9375 -33.800781 55.539062 -33.1875 54.90625 -32.1875 C 54.269531 -31.1875 53.796875 -30.457031 53.484375 -30 C 53.179688 -29.539062 52.671875 -28.734375 51.953125 -27.578125 C 51.234375 -26.429688 50.65625 -25.472656 50.21875 -24.703125 C 49.789062 -23.941406 49.253906 -23 48.609375 -21.875 C 47.972656 -20.75 47.460938 -19.773438 47.078125 -18.953125 C 46.691406 -18.128906 46.296875 -17.234375 45.890625 -16.265625 C 45.171875 -14.472656 44.8125 -12.988281 44.8125 -11.8125 Z M 44.8125 -11.8125 "/></g></g></g><g fill="#202020" fill-opacity="1"><g transform="translate(232.475244, 210.528565)"><g><path d="M 44.8125 -11.8125 C 44.8125 -9.5625 46.347656 -8.4375 49.421875 -8.4375 C 51.054688 -8.4375 53.113281 -9.253906 55.59375 -10.890625 C 58.070312 -12.535156 60.3125 -14.328125 62.3125 -16.265625 C 67.632812 -21.535156 70.648438 -24.171875 71.359375 -24.171875 C 72.691406 -24.171875 73.359375 -22.25 73.359375 -18.40625 C 73.359375 -14.570312 72.15625 -11.941406 69.75 -10.515625 C 62.4375 -3.910156 56.785156 0.101562 52.796875 1.53125 C 50.546875 2.300781 48.0625 2.660156 45.34375 2.609375 C 42.632812 2.554688 39.945312 1.378906 37.28125 -0.921875 C 34.625 -3.222656 33.296875 -6.019531 33.296875 -9.3125 C 33.296875 -12.613281 34.164062 -16.363281 35.90625 -20.5625 C 37.644531 -24.757812 39.421875 -28.351562 41.234375 -31.34375 C 43.054688 -34.332031 45.296875 -37.8125 47.953125 -41.78125 C 50.617188 -45.75 52.03125 -48.21875 52.1875 -49.1875 L 52.03125 -49.34375 C 50.34375 -49.1875 46.160156 -45.859375 39.484375 -39.359375 C 32.804688 -32.867188 27.289062 -27.21875 22.9375 -22.40625 C 18.59375 -17.59375 13.398438 -11.171875 7.359375 -3.140625 C 5.671875 -0.941406 4.289062 0.15625 3.21875 0.15625 C 2.144531 0.15625 0.703125 -0.1875 -1.109375 -0.875 C -2.929688 -1.570312 -4.046875 -2.070312 -4.453125 -2.375 C -4.859375 -2.6875 -5.0625 -3.148438 -5.0625 -3.765625 C -5.0625 -4.378906 -4.878906 -5.128906 -4.515625 -6.015625 C -4.160156 -6.910156 -3.816406 -7.648438 -3.484375 -8.234375 C -3.160156 -8.828125 -2.613281 -9.738281 -1.84375 -10.96875 C -1.070312 -12.195312 0.445312 -14.789062 2.71875 -18.75 C 5 -22.71875 8.492188 -28.640625 13.203125 -36.515625 C 17.910156 -44.398438 20.722656 -49.160156 21.640625 -50.796875 C 23.585938 -54.171875 25.171875 -56.628906 26.390625 -58.171875 C 28.691406 -61.085938 32.582031 -62.546875 38.0625 -62.546875 C 39.289062 -62.546875 39.90625 -61.773438 39.90625 -60.234375 C 39.90625 -57.828125 37.679688 -53.300781 33.234375 -46.65625 L 30 -41.828125 C 38.851562 -51.648438 46.320312 -57.863281 52.40625 -60.46875 C 55.375 -61.75 58.046875 -62.390625 60.421875 -62.390625 C 62.804688 -62.390625 64.703125 -61.75 66.109375 -60.46875 C 67.515625 -59.1875 68.21875 -57.765625 68.21875 -56.203125 C 68.21875 -54.648438 67.679688 -52.785156 66.609375 -50.609375 C 65.535156 -48.429688 64.445312 -46.484375 63.34375 -44.765625 C 62.25 -43.054688 60.804688 -40.894531 59.015625 -38.28125 C 57.222656 -35.675781 56.25 -34.257812 56.09375 -34.03125 C 55.9375 -33.800781 55.539062 -33.1875 54.90625 -32.1875 C 54.269531 -31.1875 53.796875 -30.457031 53.484375 -30 C 53.179688 -29.539062 52.671875 -28.734375 51.953125 -27.578125 C 51.234375 -26.429688 50.65625 -25.472656 50.21875 -24.703125 C 49.789062 -23.941406 49.253906 -23 48.609375 -21.875 C 47.972656 -20.75 47.460938 -19.773438 47.078125 -18.953125 C 46.691406 -18.128906 46.296875 -17.234375 45.890625 -16.265625 C 45.171875 -14.472656 44.8125 -12.988281 44.8125 -11.8125 Z M 44.8125 -11.8125 "/></g></g></g><g fill="#202020" fill-opacity="1"><g transform="translate(293.859904, 210.528565)"><g><path d="M 63.3125 -58.3125 C 67.195312 -58.3125 69.140625 -56.984375 69.140625 -54.328125 C 69.140625 -52.898438 68.804688 -51.851562 68.140625 -51.1875 C 67.472656 -50.519531 66.050781 -48.304688 63.875 -44.546875 C 61.707031 -40.785156 59.304688 -35.972656 56.671875 -30.109375 C 54.035156 -24.253906 52.332031 -19.253906 51.5625 -15.109375 C 51.414062 -14.597656 51.34375 -13.882812 51.34375 -12.96875 C 51.34375 -10.15625 52.109375 -8.75 53.640625 -8.75 C 55.171875 -8.75 56.984375 -9.476562 59.078125 -10.9375 C 61.179688 -12.394531 63.050781 -13.953125 64.6875 -15.609375 C 66.320312 -17.273438 67.921875 -18.976562 69.484375 -20.71875 C 71.046875 -22.457031 71.976562 -23.453125 72.28125 -23.703125 C 72.59375 -23.960938 73.054688 -24.09375 73.671875 -24.09375 C 74.640625 -24.09375 75.222656 -23.347656 75.421875 -21.859375 C 75.628906 -20.378906 75.734375 -18.847656 75.734375 -17.265625 C 75.734375 -15.679688 75.582031 -14.582031 75.28125 -13.96875 C 73.789062 -11.050781 70.523438 -7.546875 65.484375 -3.453125 C 60.453125 0.640625 55.875 2.6875 51.75 2.6875 C 47.632812 2.6875 44.601562 1.4375 42.65625 -1.0625 C 40.71875 -3.570312 39.75 -6.347656 39.75 -9.390625 C 39.75 -12.441406 40.257812 -15.117188 41.28125 -17.421875 C 37.039062 -11.890625 32.171875 -7.207031 26.671875 -3.375 C 21.171875 0.457031 16.679688 2.375 13.203125 2.375 C 9.722656 2.375 6.882812 1.328125 4.6875 -0.765625 C 1.863281 -3.378906 0.453125 -7 0.453125 -11.625 C 0.453125 -16.25 1.488281 -20.898438 3.5625 -25.578125 C 5.632812 -30.265625 8.359375 -34.539062 11.734375 -38.40625 C 15.117188 -42.269531 18.832031 -45.785156 22.875 -48.953125 C 31.363281 -55.609375 39.1875 -58.9375 46.34375 -58.9375 C 49.113281 -58.9375 51.363281 -58.472656 53.09375 -57.546875 C 54.832031 -56.628906 55.9375 -55.476562 56.40625 -54.09375 C 57.632812 -55.9375 58.671875 -57.097656 59.515625 -57.578125 C 60.359375 -58.066406 61.625 -58.3125 63.3125 -58.3125 Z M 53.109375 -49.796875 C 44.359375 -49.796875 35.300781 -44.9375 25.9375 -35.21875 C 22.613281 -31.738281 19.554688 -27.566406 16.765625 -22.703125 C 13.972656 -17.847656 12.578125 -14.523438 12.578125 -12.734375 C 12.578125 -10.941406 13.09375 -10.046875 14.125 -10.046875 C 15.550781 -10.046875 19.535156 -12.875 26.078125 -18.53125 C 32.628906 -24.1875 36.984375 -28.34375 39.140625 -31 C 41.492188 -33.96875 46.148438 -40.234375 53.109375 -49.796875 Z M 53.109375 -49.796875 "/></g></g></g><path stroke-linecap="butt" transform="matrix(1.972803, 0, 0, 1.972803, 60.986504, 230.148998)" fill="none" stroke-linejoin="miter" d="M 8.039907 5.116167 C 8.725005 5.116167 9.439803 5.143888 10.186282 5.199329 C 10.932762 5.254771 11.689141 5.367634 12.455421 5.537918 C 12.455421 5.537918 12.481161 5.684442 12.528682 5.975509 C 12.582144 6.268557 12.635605 6.609126 12.691047 7.001176 C 12.746488 7.393226 12.797969 7.749635 12.847471 8.070403 C 12.898952 8.389191 12.924693 8.575316 12.924693 8.632738 C 12.938553 8.690159 12.894992 8.74758 12.794009 8.803022 C 12.696987 8.858463 12.592044 8.886184 12.477201 8.886184 C 12.376219 8.886184 12.291076 8.866384 12.221775 8.824802 C 12.194054 8.668378 12.126732 8.426812 12.019809 8.100104 C 11.910907 7.773395 11.718842 7.434807 11.441635 7.080378 C 11.166408 6.721989 10.766437 6.421021 10.237764 6.173514 C 9.71305 5.924028 9.018052 5.799285 8.14881 5.799285 C 7.37857 5.799285 6.681592 5.971549 6.055896 6.320038 C 5.43218 6.666547 4.895587 7.135819 4.448095 7.725874 C 3.998624 8.315929 3.658055 8.969346 3.420449 9.688105 C 3.188783 10.406863 3.07196 11.129582 3.07196 11.85626 C 3.07196 12.664121 3.180863 13.460101 3.400648 14.246182 C 3.622414 15.026322 3.957043 15.7332 4.406514 16.364836 C 4.854006 16.996472 5.41436 17.501385 6.087577 17.879575 C 6.764755 18.259745 7.558755 18.447849 8.467598 18.447849 C 9.107155 18.447849 9.649689 18.348847 10.09718 18.150842 C 10.544672 17.948877 10.918901 17.713251 11.217889 17.441984 C 11.629739 17.071714 11.928727 16.657883 12.112872 16.204452 C 12.300977 15.74904 12.4277 15.35105 12.498982 15.010481 C 12.740548 14.98276 12.962314 15.040182 13.160319 15.182746 C 13.160319 15.279768 13.134578 15.479753 13.087057 15.782701 C 13.037556 16.079709 12.976174 16.402457 12.904892 16.750946 C 12.83559 17.097455 12.756388 17.406343 12.669266 17.67761 C 12.582144 17.948877 12.504922 18.119161 12.43562 18.188463 C 11.865365 18.499331 11.217889 18.736937 10.49319 18.895341 C 9.768492 19.051765 8.92301 19.130967 7.956745 19.130967 C 6.933059 19.130967 5.994515 18.948802 5.139133 18.588433 C 4.285731 18.224104 3.549152 17.725131 2.931376 17.093495 C 2.3136 16.457898 1.838388 15.7332 1.50574 14.917419 C 1.171111 14.097678 1.004787 13.226455 1.004787 12.303752 C 1.004787 11.319666 1.179031 10.400923 1.52554 9.543561 C 1.872049 8.682239 2.359142 7.917939 2.984838 7.252642 C 3.612514 6.581405 4.355033 6.058671 5.212395 5.684442 C 6.073717 5.306252 7.016221 5.116167 8.039907 5.116167 Z M 19.708347 16.099509 C 19.708347 16.099509 19.775668 15.925265 19.912292 15.578756 C 20.046935 15.228287 20.22712 14.755055 20.452846 14.157079 C 20.682532 13.559104 20.941918 12.895787 21.234966 12.163168 C 21.526033 11.430549 21.821061 10.67615 22.120049 9.90195 C 22.419036 9.12775 22.706144 8.385231 22.983351 7.674393 C 23.262538 6.961575 23.506084 6.337859 23.71795 5.799285 C 23.773391 5.684442 23.898134 5.555739 24.088219 5.413175 C 24.282264 5.270611 24.430768 5.199329 24.53175 5.199329 C 24.559471 5.199329 24.575312 5.20329 24.583232 5.21121 C 24.589172 5.21715 24.606992 5.22705 24.634713 5.240911 L 28.879942 16.374736 C 29.19081 17.202397 29.370995 17.655829 29.414556 17.738991 C 29.485838 17.895415 29.622461 18.032039 29.826406 18.146882 C 30.034312 18.259745 30.242217 18.342907 30.446162 18.396368 C 30.654067 18.443889 30.786731 18.46963 30.842172 18.46963 C 30.897614 18.538932 30.919394 18.647834 30.905534 18.796338 C 30.891674 18.946822 30.877813 19.033944 30.863953 19.061665 C 30.450122 19.033944 30.079853 19.010184 29.753144 18.990383 C 29.428416 18.968603 29.036366 18.958702 28.582934 18.958702 C 28.099802 18.958702 27.697852 18.968603 27.375103 18.990383 C 27.054335 19.010184 26.654365 19.033944 26.171232 19.061665 C 26.115791 19.006224 26.09203 18.907221 26.097971 18.766638 C 26.105891 18.624074 26.135592 18.525071 26.193013 18.46963 C 26.319736 18.46963 26.519721 18.443889 26.790988 18.396368 C 27.062255 18.342907 27.2464 18.273605 27.343423 18.188463 C 27.402824 18.133021 27.430545 18.034019 27.430545 17.891455 C 27.430545 17.762752 27.385004 17.544946 27.289961 17.240018 C 27.196899 16.935091 27.078096 16.590562 26.937512 16.208412 C 26.796929 15.824282 26.656345 15.450052 26.515761 15.089683 C 26.373198 14.725354 26.254395 14.426366 26.161332 14.19272 C 26.06629 13.957094 26.020749 13.840271 26.020749 13.840271 C 26.020749 13.840271 26.006888 13.826411 25.979168 13.79671 C 25.951447 13.767009 25.923726 13.751169 25.896005 13.751169 C 25.68018 13.737309 25.416833 13.729388 25.103985 13.729388 C 24.791137 13.729388 24.50007 13.729388 24.228803 13.729388 C 24.159501 13.729388 24.088219 13.729388 24.014957 13.729388 C 23.945655 13.729388 23.882294 13.729388 23.822892 13.729388 C 23.399161 13.729388 23.038792 13.733348 22.739804 13.741269 C 22.440817 13.747209 22.054707 13.767009 21.583455 13.79671 C 21.569594 13.79671 21.547814 13.80859 21.520093 13.828391 C 21.492372 13.850171 21.478512 13.860072 21.478512 13.860072 C 21.478512 13.860072 21.425051 14.002635 21.318128 14.287763 C 21.209225 14.57091 21.082502 14.909499 20.932018 15.303529 C 20.783514 15.691619 20.652831 16.055948 20.541948 16.396517 C 20.413245 16.752926 20.330083 17.053894 20.292462 17.29744 C 20.256821 17.537026 20.239 17.727111 20.239 17.869675 C 20.239 18.026099 20.349883 18.150842 20.567689 18.245884 C 20.789454 18.334986 21.01716 18.396368 21.250806 18.428049 C 21.486432 18.45577 21.632956 18.46963 21.692358 18.46963 C 21.720078 18.497351 21.741859 18.584473 21.755719 18.734957 C 21.76958 18.883461 21.761659 18.992363 21.733939 19.061665 C 21.462672 19.047805 21.232986 19.033944 21.040921 19.020084 C 20.850836 19.006224 20.658771 18.992363 20.464726 18.978503 C 20.272661 18.964643 20.021195 18.958702 19.708347 18.958702 C 19.395499 18.958702 19.132152 18.964643 18.916326 18.978503 C 18.704461 18.992363 18.492595 19.006224 18.27677 19.020084 C 18.064904 19.033944 17.795618 19.047805 17.468909 19.061665 C 17.441188 19.033944 17.427328 18.946822 17.427328 18.796338 C 17.427328 18.647834 17.441188 18.538932 17.468909 18.46963 C 17.597613 18.46963 17.815418 18.437949 18.120346 18.374587 C 18.425274 18.309246 18.629219 18.204303 18.730202 18.061739 C 18.942067 17.792453 19.122252 17.489505 19.270755 17.156856 C 19.421239 16.820248 19.565783 16.467799 19.708347 16.099509 Z M 23.781311 7.715974 L 21.886403 12.792824 C 21.886403 12.792824 21.888383 12.806685 21.896303 12.834405 C 21.902243 12.862126 21.914123 12.875986 21.927984 12.875986 C 22.197271 12.893807 22.520019 12.905687 22.896228 12.911627 C 23.274418 12.919548 23.575386 12.923508 23.801112 12.923508 C 24.13178 12.923508 24.426808 12.915587 24.686194 12.901727 C 24.951521 12.883907 25.238629 12.868066 25.551477 12.854206 C 25.579197 12.854206 25.597018 12.838365 25.602958 12.802725 C 25.614838 12.769064 25.618798 12.751243 25.618798 12.751243 Z M 38.774256 16.588582 C 38.774256 16.616302 38.774256 16.659863 38.774256 16.719265 C 38.774256 16.847968 38.774256 17.014293 38.774256 17.218238 C 38.774256 17.424163 38.782176 17.612268 38.796036 17.786512 C 38.813857 17.956797 38.841578 18.055799 38.883159 18.08352 C 39.025722 18.184503 39.199967 18.245884 39.403912 18.265685 C 39.613797 18.287465 39.938526 18.297366 40.378097 18.297366 L 41.550287 18.297366 C 41.950257 18.297366 42.387849 18.251824 42.863061 18.160742 C 43.338273 18.06768 43.718443 17.921156 44.00357 17.719191 C 44.260977 17.535046 44.498583 17.279619 44.716388 16.952911 C 44.938154 16.626203 45.134179 16.186631 45.304463 15.630237 C 45.332184 15.543115 45.431187 15.501534 45.601471 15.501534 C 45.858878 15.501534 46.029162 15.543115 46.112324 15.630237 C 45.914319 16.200492 45.696513 16.804407 45.460887 17.441984 C 45.229221 18.08154 45.076758 18.628034 45.003496 19.083446 C 43.880807 19.083446 42.766038 19.069585 41.65523 19.041865 C 40.546401 19.014144 39.295009 19.000284 37.899073 19.000284 C 37.417921 19.000284 36.98429 19.010184 36.59818 19.031964 C 36.21603 19.051765 35.81804 19.061665 35.406189 19.061665 C 35.350748 19.006224 35.325007 18.907221 35.332928 18.766638 C 35.338868 18.624074 35.364608 18.525071 35.406189 18.46963 C 35.491332 18.46963 35.647756 18.45775 35.873481 18.437949 C 36.103167 18.414188 36.320973 18.372607 36.524918 18.317166 C 36.732823 18.261725 36.843706 18.198363 36.857567 18.125101 C 36.913008 17.954817 36.944689 17.735031 36.952609 17.463764 C 36.958549 17.192497 36.962509 16.90143 36.962509 16.588582 L 36.962509 7.694193 C 36.962509 7.381345 36.958549 7.086318 36.952609 6.809111 C 36.944689 6.531904 36.913008 6.308158 36.857567 6.137874 C 36.843706 6.054711 36.732823 5.99135 36.524918 5.949769 C 36.320973 5.904228 36.103167 5.872547 35.873481 5.850766 C 35.647756 5.830966 35.491332 5.819085 35.406189 5.819085 C 35.364608 5.761664 35.338868 5.660681 35.332928 5.518118 C 35.325007 5.375554 35.350748 5.276551 35.406189 5.22111 C 35.8319 5.23497 36.251671 5.252791 36.665502 5.272591 C 37.079332 5.294372 37.483263 5.304272 37.879273 5.304272 C 38.293103 5.304272 38.693074 5.294372 39.081164 5.272591 C 39.475194 5.252791 39.883084 5.23497 40.310775 5.22111 C 40.370177 5.276551 40.395917 5.375554 40.389977 5.518118 C 40.382057 5.660681 40.356316 5.761664 40.310775 5.819085 C 40.227613 5.819085 40.071189 5.830966 39.841503 5.850766 C 39.615777 5.872547 39.403912 5.904228 39.201947 5.949769 C 39.003942 5.99135 38.891079 6.054711 38.863358 6.137874 C 38.817817 6.280437 38.792076 6.464582 38.786136 6.694268 C 38.778216 6.919994 38.774256 7.16948 38.774256 7.438767 C 38.774256 7.480348 38.774256 7.523909 38.774256 7.56945 C 38.774256 7.611031 38.774256 7.652612 38.774256 7.694193 Z M 54.388936 5.965609 C 53.693939 5.965609 53.103883 6.209155 52.618771 6.694268 C 52.135639 7.1774 51.779229 7.844677 51.549544 8.700059 C 51.507963 8.755501 51.430741 8.783221 51.315898 8.783221 C 51.218875 8.783221 51.113932 8.761441 50.999089 8.71986 C 50.884247 8.674319 50.812965 8.638678 50.785244 8.610957 C 50.969389 8.127825 51.113932 7.591231 51.222835 7.001176 C 51.329758 6.411121 51.41094 5.767604 51.466381 5.070626 C 51.696067 5.100327 51.971294 5.133988 52.290083 5.169629 C 52.608871 5.20329 52.903898 5.22111 53.175165 5.22111 L 57.226349 5.22111 C 57.810464 5.22111 58.321317 5.21319 58.762869 5.199329 C 59.20442 5.185469 59.642011 5.165669 60.075642 5.137948 C 60.509273 5.106267 61.018147 5.070626 61.600281 5.029045 C 61.641863 5.042905 61.711164 5.100327 61.810167 5.199329 C 61.909169 5.300312 61.960651 5.393374 61.960651 5.476537 C 61.960651 5.490397 61.831947 5.686422 61.574541 6.064612 C 61.321094 6.438841 60.984486 6.933854 60.564715 7.54965 C 60.144944 8.159505 59.673692 8.842623 59.152939 9.595042 C 58.636145 10.349442 58.099552 11.131562 57.545137 11.943382 C 56.992703 12.753223 56.452149 13.529403 55.925456 14.275882 C 55.400742 15.022361 54.93147 15.697559 54.51962 16.303454 C 54.105789 16.90737 53.775121 17.386542 53.523654 17.744931 C 53.278128 18.09936 53.155365 18.275585 53.155365 18.275585 L 58.590604 18.275585 C 59.046016 18.275585 59.426186 18.208263 59.731114 18.07362 C 60.038021 17.936996 60.305328 17.754832 60.533034 17.527126 C 60.832022 17.228138 61.063688 16.887569 61.226052 16.50542 C 61.388416 16.11931 61.529 15.778741 61.641863 15.479753 C 61.655723 15.452033 61.691364 15.434212 61.746805 15.428272 C 61.806207 15.420352 61.863628 15.416392 61.91907 15.416392 C 62.033913 15.416392 62.134895 15.438172 62.225978 15.479753 C 62.31904 15.521334 62.388342 15.564895 62.429923 15.610437 C 62.273499 16.14703 62.134895 16.606402 62.012132 16.984592 C 61.895309 17.358821 61.788386 17.70137 61.695324 18.010258 C 61.604242 18.315186 61.515139 18.645854 61.429997 19.000284 L 50.999089 19.000284 C 50.884247 19.000284 50.779304 18.964643 50.686241 18.895341 C 50.595159 18.822079 50.571399 18.758717 50.61298 18.703276 L 59.465787 5.965609 Z M 68.744305 16.099509 C 68.744305 16.099509 68.811626 15.925265 68.94825 15.578756 C 69.082893 15.228287 69.263078 14.755055 69.488804 14.157079 C 69.71849 13.559104 69.979856 12.895787 70.270924 12.163168 C 70.561991 11.430549 70.857019 10.67615 71.156007 9.90195 C 71.454994 9.12775 71.742102 8.385231 72.021289 7.674393 C 72.298496 6.961575 72.542042 6.337859 72.753908 5.799285 C 72.809349 5.684442 72.934092 5.555739 73.124177 5.413175 C 73.318222 5.270611 73.466726 5.199329 73.567709 5.199329 C 73.595429 5.199329 73.61127 5.20329 73.61919 5.21121 C 73.62513 5.21715 73.64295 5.22705 73.670671 5.240911 L 77.9159 16.374736 C 78.228748 17.202397 78.406953 17.655829 78.452494 17.738991 C 78.521796 17.895415 78.658419 18.032039 78.862364 18.146882 C 79.07225 18.259745 79.278175 18.342907 79.48212 18.396368 C 79.692006 18.443889 79.822689 18.46963 79.87813 18.46963 C 79.933572 18.538932 79.955352 18.647834 79.941492 18.796338 C 79.927632 18.946822 79.913771 19.033944 79.899911 19.061665 C 79.48608 19.033944 79.115811 19.010184 78.791083 18.990383 C 78.464374 18.968603 78.072324 18.958702 77.618892 18.958702 C 77.13576 18.958702 76.73381 18.968603 76.411061 18.990383 C 76.090293 19.010184 75.690323 19.033944 75.207191 19.061665 C 75.151749 19.006224 75.127989 18.907221 75.133929 18.766638 C 75.141849 18.624074 75.17353 18.525071 75.228971 18.46963 C 75.357674 18.46963 75.55568 18.443889 75.826946 18.396368 C 76.098213 18.342907 76.282358 18.273605 76.379381 18.188463 C 76.438782 18.133021 76.468483 18.034019 76.468483 17.891455 C 76.468483 17.762752 76.420962 17.544946 76.327899 17.240018 C 76.232857 16.935091 76.116034 16.590562 75.97347 16.208412 C 75.834867 15.824282 75.694283 15.450052 75.551719 15.089683 C 75.409156 14.725354 75.290353 14.426366 75.19729 14.19272 C 75.104228 13.957094 75.056707 13.840271 75.056707 13.840271 C 75.056707 13.840271 75.042846 13.826411 75.015126 13.79671 C 74.987405 13.767009 74.959684 13.751169 74.931964 13.751169 C 74.716138 13.737309 74.452791 13.729388 74.139943 13.729388 C 73.827095 13.729388 73.536028 13.729388 73.264761 13.729388 C 73.195459 13.729388 73.124177 13.729388 73.050915 13.729388 C 72.981613 13.729388 72.918252 13.729388 72.85885 13.729388 C 72.435119 13.729388 72.07475 13.733348 71.775763 13.741269 C 71.476775 13.747209 71.092645 13.767009 70.619413 13.79671 C 70.605553 13.79671 70.585752 13.80859 70.558031 13.828391 C 70.530311 13.850171 70.51447 13.860072 70.51447 13.860072 C 70.51447 13.860072 70.461009 14.002635 70.354086 14.287763 C 70.247163 14.57091 70.11846 14.909499 69.967976 15.303529 C 69.819472 15.691619 69.688789 16.055948 69.577906 16.396517 C 69.449203 16.752926 69.366041 17.053894 69.32842 17.29744 C 69.292779 17.537026 69.276938 17.727111 69.276938 17.869675 C 69.276938 18.026099 69.385841 18.150842 69.603647 18.245884 C 69.825412 18.334986 70.053118 18.396368 70.286764 18.428049 C 70.52239 18.45577 70.670894 18.46963 70.728316 18.46963 C 70.756036 18.497351 70.777817 18.584473 70.791677 18.734957 C 70.805538 18.883461 70.797617 18.992363 70.769897 19.061665 C 70.50061 19.047805 70.268944 19.033944 70.078859 19.020084 C 69.886794 19.006224 69.694729 18.992363 69.500684 18.978503 C 69.308619 18.964643 69.057153 18.958702 68.744305 18.958702 C 68.431457 18.958702 68.16811 18.964643 67.954264 18.978503 C 67.742399 18.992363 67.528554 19.006224 67.312728 19.020084 C 67.100863 19.033944 66.831576 19.047805 66.504867 19.061665 C 66.477147 19.033944 66.463286 18.946822 66.463286 18.796338 C 66.463286 18.647834 66.477147 18.538932 66.504867 18.46963 C 66.633571 18.46963 66.851376 18.437949 67.156304 18.374587 C 67.461232 18.309246 67.665177 18.204303 67.76616 18.061739 C 67.978025 17.792453 68.15821 17.489505 68.306714 17.156856 C 68.457197 16.820248 68.601741 16.467799 68.744305 16.099509 Z M 72.817269 7.715974 L 70.922361 12.792824 C 70.922361 12.792824 70.924341 12.806685 70.932261 12.834405 C 70.938201 12.862126 70.950081 12.875986 70.963942 12.875986 C 71.233229 12.893807 71.555977 12.905687 71.932187 12.911627 C 72.310376 12.919548 72.613324 12.923508 72.83707 12.923508 C 73.167738 12.923508 73.462766 12.915587 73.724133 12.901727 C 73.987479 12.883907 74.274587 12.868066 74.587435 12.854206 C 74.615155 12.854206 74.632976 12.838365 74.638916 12.802725 C 74.650796 12.769064 74.654756 12.751243 74.654756 12.751243 Z M 89.924908 5.282492 C 91.445587 5.282492 92.752421 5.577519 93.847389 6.169554 C 94.944337 6.759609 95.783879 7.56351 96.366013 8.579276 C 96.950128 9.597022 97.241196 10.753372 97.241196 12.048325 C 97.241196 12.929448 97.120413 13.79077 96.876867 14.630311 C 96.63728 15.467873 96.22939 16.220292 95.653195 16.891529 C 95.077 17.556827 94.29686 18.08748 93.314755 18.47953 C 92.33661 18.86762 91.114919 19.061665 89.649681 19.061665 L 84.442148 19.061665 C 84.386706 19.006224 84.360965 18.907221 84.368886 18.766638 C 84.374826 18.624074 84.400566 18.525071 84.442148 18.46963 C 84.52927 18.46963 84.685694 18.45775 84.90944 18.437949 C 85.139125 18.414188 85.356931 18.372607 85.560876 18.317166 C 85.768782 18.261725 85.881644 18.198363 85.895505 18.125101 C 85.950946 17.954817 85.980647 17.735031 85.988567 17.463764 C 85.994507 17.192497 85.998467 16.90143 85.998467 16.588582 L 85.998467 7.694193 C 85.998467 7.381345 85.994507 7.086318 85.988567 6.809111 C 85.980647 6.531904 85.950946 6.308158 85.895505 6.137874 C 85.881644 6.054711 85.768782 5.99135 85.560876 5.949769 C 85.356931 5.904228 85.139125 5.872547 84.90944 5.850766 C 84.685694 5.830966 84.52927 5.819085 84.442148 5.819085 C 84.400566 5.761664 84.374826 5.660681 84.368886 5.518118 C 84.360965 5.375554 84.386706 5.276551 84.442148 5.22111 C 84.867858 5.23497 85.289609 5.252791 85.70146 5.272591 C 86.11529 5.294372 86.519221 5.304272 86.915231 5.304272 C 87.329062 5.304272 87.820114 5.300312 88.388389 5.294372 C 88.958643 5.286452 89.469496 5.282492 89.924908 5.282492 Z M 87.831994 7.735775 L 87.831994 16.610362 C 87.831994 16.711345 87.831994 16.871729 87.831994 17.093495 C 87.831994 17.31328 87.841895 17.527126 87.863675 17.735031 C 87.887436 17.938976 87.913177 18.061739 87.940897 18.103321 C 88.02802 18.218163 88.237905 18.297366 88.570553 18.338947 C 88.905182 18.380528 89.263571 18.400328 89.649681 18.400328 C 90.641687 18.400328 91.55449 18.188463 92.388091 17.766712 C 93.221693 17.339021 93.89293 16.687584 94.403783 15.812402 C 94.916616 14.937219 95.174023 13.826411 95.174023 12.474036 C 95.174023 11.293926 95.013639 10.294 94.69089 9.470299 C 94.370122 8.644618 93.936491 7.971401 93.388017 7.454607 C 92.843503 6.933854 92.225727 6.555664 91.534689 6.320038 C 90.843652 6.084412 90.120933 5.965609 89.368514 5.965609 C 89.285352 5.965609 89.128928 5.969569 88.899242 5.975509 C 88.673516 5.98343 88.459671 6.00125 88.259685 6.032931 C 88.06168 6.060652 87.948817 6.110153 87.921097 6.179455 C 87.879516 6.322018 87.851795 6.510123 87.841895 6.745749 C 87.835955 6.979395 87.831994 7.224921 87.831994 7.480348 C 87.831994 7.521929 87.831994 7.56549 87.831994 7.611031 C 87.831994 7.652612 87.831994 7.694193 87.831994 7.735775 Z M 109.739277 5.116167 C 110.66396 5.116167 111.533203 5.286452 112.348984 5.62702 C 113.168725 5.967589 113.889463 6.454682 114.515159 7.090278 C 115.142835 7.721914 115.637848 8.468393 116.000197 9.329715 C 116.364527 10.187077 116.546691 11.135522 116.546691 12.173068 C 116.546691 13.155174 116.364527 14.069957 116.000197 14.917419 C 115.637848 15.76092 115.142835 16.5074 114.515159 17.156856 C 113.889463 17.802353 113.168725 18.307266 112.348984 18.671595 C 111.533203 19.033944 110.66396 19.214129 109.739277 19.214129 C 108.830433 19.214129 107.965151 19.043845 107.14739 18.703276 C 106.331609 18.358747 105.612851 17.871655 104.991115 17.240018 C 104.373339 16.608382 103.886246 15.861903 103.531817 15.000581 C 103.179368 14.139259 103.001164 13.196755 103.001164 12.173068 C 103.001164 11.192943 103.179368 10.27816 103.531817 9.422778 C 103.886246 8.569376 104.373339 7.818937 104.991115 7.17344 C 105.612851 6.523983 106.331609 6.01907 107.14739 5.658701 C 107.965151 5.296352 108.830433 5.116167 109.739277 5.116167 Z M 109.442269 5.819085 C 108.658169 5.819085 107.988912 5.99333 107.432517 6.339839 C 106.880083 6.688328 106.430612 7.145719 106.078163 7.715974 C 105.731654 8.284249 105.476227 8.917865 105.313863 9.616823 C 105.149519 10.309841 105.068337 11.006818 105.068337 11.703796 C 105.068337 12.517597 105.17724 13.323478 105.397025 14.125398 C 105.618791 14.927319 105.943519 15.659938 106.37121 16.323255 C 106.796921 16.982612 107.319654 17.513265 107.93743 17.911256 C 108.555206 18.311226 109.270005 18.511211 110.077865 18.511211 C 110.863945 18.511211 111.531223 18.336967 112.083657 17.990458 C 112.638071 17.639989 113.093483 17.172697 113.447912 16.588582 C 113.804321 16.006447 114.065688 15.36293 114.228052 14.661992 C 114.392396 13.957094 114.473578 13.256156 114.473578 12.559178 C 114.473578 11.749338 114.362695 10.947417 114.140929 10.151437 C 113.921144 9.353476 113.594435 8.628777 113.160804 7.975361 C 112.727173 7.319964 112.20048 6.79723 111.582704 6.40914 C 110.964928 6.01511 110.25211 5.819085 109.442269 5.819085 Z M 126.672671 5.137948 C 127.114222 5.137948 127.480532 5.161708 127.771599 5.21121 C 128.062667 5.258731 128.361654 5.326053 128.666582 5.413175 C 128.97547 5.496337 129.35762 5.59534 129.813032 5.710183 C 129.896194 6.252716 129.961535 6.811091 130.011037 7.387286 C 130.062518 7.96348 130.096179 8.393151 130.110039 8.678279 C 130.1239 8.74758 130.072418 8.801042 129.957575 8.834703 C 129.844712 8.870344 129.75165 8.886184 129.682348 8.886184 C 129.581366 8.886184 129.504144 8.858463 129.448702 8.803022 C 129.420982 8.547595 129.335839 8.248608 129.193276 7.908039 C 129.050712 7.56747 128.854687 7.240762 128.605201 6.929894 C 128.353734 6.617046 128.056727 6.357659 127.708238 6.153714 C 127.361729 5.943829 126.967699 5.840866 126.526147 5.840866 C 125.957873 5.840866 125.508401 5.961649 125.183673 6.205195 C 124.856964 6.444781 124.623318 6.743769 124.480755 7.100178 C 124.338191 7.454607 124.266909 7.801116 124.266909 8.141685 C 124.266909 8.698079 124.411453 9.161411 124.704501 9.533661 C 124.995568 9.89997 125.365837 10.226678 125.813329 10.511806 C 126.26082 10.796933 126.712272 11.088001 127.167684 11.386988 C 127.508252 11.598854 127.884462 11.8325 128.296313 12.089906 C 128.710143 12.347313 129.108133 12.63046 129.490283 12.943308 C 129.874413 13.256156 130.187261 13.614545 130.426847 14.022436 C 130.670394 14.424386 130.791177 14.881778 130.791177 15.396591 C 130.791177 16.14901 130.581291 16.814307 130.161521 17.390502 C 129.74175 17.966697 129.199216 18.414188 128.535899 18.734957 C 127.876542 19.053745 127.177584 19.214129 126.437045 19.214129 C 125.744027 19.214129 125.07279 19.134927 124.423333 18.978503 C 123.777837 18.822079 123.199662 18.695356 122.688809 18.594373 C 122.601687 18.180543 122.524465 17.738991 122.459123 17.271699 C 122.397741 16.802427 122.34824 16.390577 122.314579 16.036147 C 122.278938 15.679738 122.261118 15.457973 122.261118 15.374811 C 122.33042 15.303529 122.411602 15.242147 122.500704 15.192646 C 122.595746 15.145125 122.692769 15.121364 122.793751 15.121364 C 122.920475 15.121364 122.999677 15.182746 123.027397 15.307489 C 123.068979 15.509454 123.158081 15.782701 123.292724 16.13119 C 123.427368 16.477699 123.627353 16.838068 123.8907 17.208338 C 124.156026 17.576627 124.496595 17.885515 124.912406 18.135001 C 125.332177 18.386468 125.85689 18.511211 126.484566 18.511211 C 127.151843 18.511211 127.731998 18.287465 128.228991 17.837994 C 128.729944 17.390502 128.97943 16.760846 128.97943 15.949025 C 128.97943 15.36491 128.846767 14.909499 128.58342 14.58477 C 128.320073 14.258062 127.977524 13.974915 127.557754 13.735328 C 127.141943 13.491782 126.690491 13.234376 126.203399 12.965089 C 125.678686 12.652241 125.136152 12.307712 124.573817 11.933482 C 124.011483 11.555293 123.538251 11.109781 123.152141 10.600908 C 122.769991 10.086095 122.579906 9.480199 122.579906 8.783221 C 122.579906 8.042682 122.773951 7.401146 123.162041 6.856632 C 123.554091 6.308158 124.062964 5.884427 124.68866 5.585439 C 125.316336 5.286452 125.977673 5.137948 126.672671 5.137948 Z M 126.672671 5.137948 " stroke="#ffffff" stroke-width="2.559996" stroke-opacity="1" stroke-miterlimit="4"/><g fill="#000000" fill-opacity="1"><g transform="translate(60.986504, 267.632253)"><g><path d="M 15.859375 -27.390625 C 17.210938 -27.390625 18.625 -27.332031 20.09375 -27.21875 C 21.5625 -27.113281 23.054688 -26.890625 24.578125 -26.546875 C 24.578125 -26.546875 24.625 -26.257812 24.71875 -25.6875 C 24.820312 -25.113281 24.925781 -24.441406 25.03125 -23.671875 C 25.144531 -22.898438 25.25 -22.195312 25.34375 -21.5625 C 25.445312 -20.9375 25.5 -20.566406 25.5 -20.453125 C 25.53125 -20.335938 25.445312 -20.222656 25.25 -20.109375 C 25.050781 -19.992188 24.835938 -19.9375 24.609375 -19.9375 C 24.421875 -19.9375 24.253906 -19.984375 24.109375 -20.078125 C 24.054688 -20.378906 23.921875 -20.851562 23.703125 -21.5 C 23.492188 -22.144531 23.113281 -22.816406 22.5625 -23.515625 C 22.019531 -24.222656 21.226562 -24.820312 20.1875 -25.3125 C 19.15625 -25.800781 17.785156 -26.046875 16.078125 -26.046875 C 14.554688 -26.046875 13.175781 -25.703125 11.9375 -25.015625 C 10.707031 -24.328125 9.648438 -23.398438 8.765625 -22.234375 C 7.890625 -21.066406 7.21875 -19.773438 6.75 -18.359375 C 6.289062 -16.941406 6.0625 -15.519531 6.0625 -14.09375 C 6.0625 -12.5 6.273438 -10.925781 6.703125 -9.375 C 7.140625 -7.832031 7.800781 -6.4375 8.6875 -5.1875 C 9.570312 -3.945312 10.679688 -2.953125 12.015625 -2.203125 C 13.347656 -1.460938 14.910156 -1.09375 16.703125 -1.09375 C 17.960938 -1.09375 19.035156 -1.285156 19.921875 -1.671875 C 20.804688 -2.066406 21.546875 -2.535156 22.140625 -3.078125 C 22.953125 -3.804688 23.539062 -4.617188 23.90625 -5.515625 C 24.269531 -6.410156 24.519531 -7.195312 24.65625 -7.875 C 25.132812 -7.925781 25.570312 -7.8125 25.96875 -7.53125 C 25.96875 -7.332031 25.914062 -6.9375 25.8125 -6.34375 C 25.71875 -5.757812 25.597656 -5.125 25.453125 -4.4375 C 25.316406 -3.75 25.160156 -3.140625 24.984375 -2.609375 C 24.816406 -2.078125 24.664062 -1.738281 24.53125 -1.59375 C 23.40625 -0.976562 22.128906 -0.515625 20.703125 -0.203125 C 19.273438 0.0976562 17.601562 0.25 15.6875 0.25 C 13.675781 0.25 11.828125 -0.101562 10.140625 -0.8125 C 8.453125 -1.53125 7 -2.515625 5.78125 -3.765625 C 4.5625 -5.015625 3.625 -6.445312 2.96875 -8.0625 C 2.3125 -9.675781 1.984375 -11.394531 1.984375 -13.21875 C 1.984375 -15.144531 2.328125 -16.957031 3.015625 -18.65625 C 3.703125 -20.351562 4.660156 -21.859375 5.890625 -23.171875 C 7.128906 -24.492188 8.59375 -25.523438 10.28125 -26.265625 C 11.976562 -27.015625 13.835938 -27.390625 15.859375 -27.390625 Z M 15.859375 -27.390625 "/></g></g></g><g fill="#000000" fill-opacity="1"><g transform="translate(95.9537, 267.632253)"><g><path d="M 3.90625 -5.71875 C 3.90625 -5.71875 4.039062 -6.0625 4.3125 -6.75 C 4.582031 -7.4375 4.941406 -8.367188 5.390625 -9.546875 C 5.835938 -10.722656 6.347656 -12.035156 6.921875 -13.484375 C 7.492188 -14.929688 8.070312 -16.414062 8.65625 -17.9375 C 9.25 -19.46875 9.816406 -20.9375 10.359375 -22.34375 C 10.910156 -23.75 11.398438 -24.984375 11.828125 -26.046875 C 11.941406 -26.273438 12.1875 -26.523438 12.5625 -26.796875 C 12.9375 -27.078125 13.222656 -27.21875 13.421875 -27.21875 C 13.472656 -27.21875 13.503906 -27.210938 13.515625 -27.203125 C 13.535156 -27.191406 13.578125 -27.171875 13.640625 -27.140625 L 22 -5.171875 C 22.625 -3.546875 22.976562 -2.648438 23.0625 -2.484375 C 23.195312 -2.171875 23.46875 -1.898438 23.875 -1.671875 C 24.28125 -1.453125 24.6875 -1.289062 25.09375 -1.1875 C 25.5 -1.09375 25.757812 -1.046875 25.875 -1.046875 C 25.988281 -0.910156 26.03125 -0.691406 26 -0.390625 C 25.976562 -0.0976562 25.953125 0.0703125 25.921875 0.125 C 25.109375 0.0703125 24.378906 0.0234375 23.734375 -0.015625 C 23.085938 -0.0546875 22.316406 -0.078125 21.421875 -0.078125 C 20.460938 -0.078125 19.664062 -0.0546875 19.03125 -0.015625 C 18.40625 0.0234375 17.613281 0.0703125 16.65625 0.125 C 16.550781 0.0078125 16.503906 -0.1875 16.515625 -0.46875 C 16.523438 -0.75 16.585938 -0.941406 16.703125 -1.046875 C 16.953125 -1.046875 17.34375 -1.09375 17.875 -1.1875 C 18.414062 -1.289062 18.785156 -1.425781 18.984375 -1.59375 C 19.085938 -1.707031 19.140625 -1.90625 19.140625 -2.1875 C 19.140625 -2.4375 19.046875 -2.863281 18.859375 -3.46875 C 18.679688 -4.070312 18.453125 -4.75 18.171875 -5.5 C 17.890625 -6.257812 17.609375 -7 17.328125 -7.71875 C 17.054688 -8.4375 16.828125 -9.023438 16.640625 -9.484375 C 16.460938 -9.953125 16.375 -10.1875 16.375 -10.1875 C 16.375 -10.1875 16.34375 -10.210938 16.28125 -10.265625 C 16.226562 -10.316406 16.171875 -10.34375 16.109375 -10.34375 C 15.691406 -10.375 15.175781 -10.390625 14.5625 -10.390625 C 13.945312 -10.390625 13.367188 -10.390625 12.828125 -10.390625 C 12.691406 -10.390625 12.550781 -10.390625 12.40625 -10.390625 C 12.269531 -10.390625 12.144531 -10.390625 12.03125 -10.390625 C 11.1875 -10.390625 10.46875 -10.378906 9.875 -10.359375 C 9.289062 -10.347656 8.535156 -10.316406 7.609375 -10.265625 C 7.585938 -10.265625 7.546875 -10.242188 7.484375 -10.203125 C 7.429688 -10.160156 7.40625 -10.140625 7.40625 -10.140625 C 7.40625 -10.140625 7.300781 -9.859375 7.09375 -9.296875 C 6.882812 -8.734375 6.628906 -8.066406 6.328125 -7.296875 C 6.035156 -6.523438 5.773438 -5.804688 5.546875 -5.140625 C 5.296875 -4.429688 5.132812 -3.835938 5.0625 -3.359375 C 5 -2.890625 4.96875 -2.515625 4.96875 -2.234375 C 4.96875 -1.921875 5.179688 -1.671875 5.609375 -1.484375 C 6.046875 -1.304688 6.492188 -1.1875 6.953125 -1.125 C 7.421875 -1.070312 7.710938 -1.046875 7.828125 -1.046875 C 7.878906 -0.992188 7.921875 -0.816406 7.953125 -0.515625 C 7.984375 -0.222656 7.96875 -0.0078125 7.90625 0.125 C 7.375 0.09375 6.914062 0.0625 6.53125 0.03125 C 6.15625 0.0078125 5.78125 -0.0078125 5.40625 -0.03125 C 5.03125 -0.0625 4.53125 -0.078125 3.90625 -0.078125 C 3.289062 -0.078125 2.769531 -0.0625 2.34375 -0.03125 C 1.925781 -0.0078125 1.507812 0.0078125 1.09375 0.03125 C 0.675781 0.0625 0.144531 0.09375 -0.5 0.125 C -0.5625 0.0703125 -0.59375 -0.0976562 -0.59375 -0.390625 C -0.59375 -0.691406 -0.5625 -0.910156 -0.5 -1.046875 C -0.25 -1.046875 0.175781 -1.109375 0.78125 -1.234375 C 1.382812 -1.367188 1.785156 -1.570312 1.984375 -1.84375 C 2.398438 -2.382812 2.753906 -2.984375 3.046875 -3.640625 C 3.347656 -4.296875 3.632812 -4.988281 3.90625 -5.71875 Z M 11.953125 -22.265625 L 8.203125 -12.25 C 8.203125 -12.25 8.207031 -12.21875 8.21875 -12.15625 C 8.238281 -12.101562 8.265625 -12.078125 8.296875 -12.078125 C 8.828125 -12.046875 9.460938 -12.023438 10.203125 -12.015625 C 10.941406 -12.003906 11.539062 -12 12 -12 C 12.632812 -12 13.210938 -12.007812 13.734375 -12.03125 C 14.253906 -12.0625 14.820312 -12.09375 15.4375 -12.125 C 15.5 -12.125 15.535156 -12.15625 15.546875 -12.21875 C 15.554688 -12.289062 15.5625 -12.328125 15.5625 -12.328125 Z M 11.953125 -22.265625 "/></g></g></g><g fill="#000000" fill-opacity="1"><g transform="translate(128.985389, 267.632253)"><g><path d="M 8.5 -4.75 C 8.5 -4.695312 8.5 -4.613281 8.5 -4.5 C 8.5 -4.25 8.5 -3.921875 8.5 -3.515625 C 8.5 -3.109375 8.507812 -2.734375 8.53125 -2.390625 C 8.5625 -2.054688 8.617188 -1.863281 8.703125 -1.8125 C 8.984375 -1.613281 9.328125 -1.492188 9.734375 -1.453125 C 10.140625 -1.410156 10.78125 -1.390625 11.65625 -1.390625 L 13.96875 -1.390625 C 14.75 -1.390625 15.609375 -1.476562 16.546875 -1.65625 C 17.492188 -1.84375 18.25 -2.132812 18.8125 -2.53125 C 19.3125 -2.894531 19.78125 -3.394531 20.21875 -4.03125 C 20.65625 -4.675781 21.039062 -5.546875 21.375 -6.640625 C 21.425781 -6.816406 21.625 -6.90625 21.96875 -6.90625 C 22.46875 -6.90625 22.800781 -6.816406 22.96875 -6.640625 C 22.582031 -5.523438 22.15625 -4.332031 21.6875 -3.0625 C 21.226562 -1.800781 20.925781 -0.722656 20.78125 0.171875 C 18.570312 0.171875 16.367188 0.140625 14.171875 0.078125 C 11.984375 0.0234375 9.519531 0 6.78125 0 C 5.820312 0 4.960938 0.0195312 4.203125 0.0625 C 3.453125 0.101562 2.664062 0.125 1.84375 0.125 C 1.738281 0.0078125 1.691406 -0.1875 1.703125 -0.46875 C 1.710938 -0.75 1.757812 -0.941406 1.84375 -1.046875 C 2.019531 -1.046875 2.332031 -1.066406 2.78125 -1.109375 C 3.226562 -1.148438 3.65625 -1.226562 4.0625 -1.34375 C 4.46875 -1.457031 4.6875 -1.582031 4.71875 -1.71875 C 4.820312 -2.0625 4.878906 -2.5 4.890625 -3.03125 C 4.910156 -3.5625 4.921875 -4.132812 4.921875 -4.75 L 4.921875 -22.296875 C 4.921875 -22.921875 4.910156 -23.503906 4.890625 -24.046875 C 4.878906 -24.597656 4.820312 -25.039062 4.71875 -25.375 C 4.6875 -25.539062 4.46875 -25.664062 4.0625 -25.75 C 3.65625 -25.832031 3.226562 -25.894531 2.78125 -25.9375 C 2.332031 -25.976562 2.019531 -26 1.84375 -26 C 1.757812 -26.113281 1.710938 -26.3125 1.703125 -26.59375 C 1.691406 -26.875 1.738281 -27.070312 1.84375 -27.1875 C 2.6875 -27.15625 3.515625 -27.117188 4.328125 -27.078125 C 5.140625 -27.035156 5.941406 -27.015625 6.734375 -27.015625 C 7.546875 -27.015625 8.335938 -27.035156 9.109375 -27.078125 C 9.878906 -27.117188 10.6875 -27.15625 11.53125 -27.1875 C 11.644531 -27.070312 11.691406 -26.875 11.671875 -26.59375 C 11.660156 -26.3125 11.613281 -26.113281 11.53125 -26 C 11.363281 -26 11.054688 -25.976562 10.609375 -25.9375 C 10.160156 -25.894531 9.738281 -25.832031 9.34375 -25.75 C 8.945312 -25.664062 8.722656 -25.539062 8.671875 -25.375 C 8.585938 -25.09375 8.535156 -24.726562 8.515625 -24.28125 C 8.503906 -23.832031 8.5 -23.34375 8.5 -22.8125 C 8.5 -22.726562 8.5 -22.640625 8.5 -22.546875 C 8.5 -22.460938 8.5 -22.378906 8.5 -22.296875 Z M 8.5 -4.75 "/></g></g></g><g fill="#000000" fill-opacity="1"><g transform="translate(159.408332, 267.632253)"><g><path d="M 8.875 -25.703125 C 7.5 -25.703125 6.332031 -25.222656 5.375 -24.265625 C 4.425781 -23.316406 3.726562 -22.003906 3.28125 -20.328125 C 3.195312 -20.210938 3.039062 -20.15625 2.8125 -20.15625 C 2.625 -20.15625 2.414062 -20.195312 2.1875 -20.28125 C 1.957031 -20.363281 1.816406 -20.429688 1.765625 -20.484375 C 2.128906 -21.441406 2.414062 -22.503906 2.625 -23.671875 C 2.84375 -24.835938 3.003906 -26.109375 3.109375 -27.484375 C 3.554688 -27.421875 4.097656 -27.351562 4.734375 -27.28125 C 5.367188 -27.21875 5.953125 -27.1875 6.484375 -27.1875 L 14.46875 -27.1875 C 15.625 -27.1875 16.632812 -27.195312 17.5 -27.21875 C 18.375 -27.25 19.238281 -27.289062 20.09375 -27.34375 C 20.945312 -27.40625 21.945312 -27.476562 23.09375 -27.5625 C 23.1875 -27.53125 23.328125 -27.414062 23.515625 -27.21875 C 23.710938 -27.03125 23.8125 -26.847656 23.8125 -26.671875 C 23.8125 -26.648438 23.554688 -26.265625 23.046875 -25.515625 C 22.546875 -24.773438 21.878906 -23.800781 21.046875 -22.59375 C 20.222656 -21.382812 19.300781 -20.035156 18.28125 -18.546875 C 17.257812 -17.066406 16.203125 -15.523438 15.109375 -13.921875 C 14.015625 -12.328125 12.945312 -10.789062 11.90625 -9.3125 C 10.863281 -7.84375 9.9375 -6.507812 9.125 -5.3125 C 8.3125 -4.125 7.660156 -3.179688 7.171875 -2.484375 C 6.679688 -1.785156 6.4375 -1.4375 6.4375 -1.4375 L 17.171875 -1.4375 C 18.066406 -1.4375 18.816406 -1.566406 19.421875 -1.828125 C 20.023438 -2.097656 20.550781 -2.457031 21 -2.90625 C 21.582031 -3.488281 22.035156 -4.160156 22.359375 -4.921875 C 22.679688 -5.679688 22.957031 -6.351562 23.1875 -6.9375 C 23.21875 -7 23.285156 -7.035156 23.390625 -7.046875 C 23.503906 -7.054688 23.617188 -7.0625 23.734375 -7.0625 C 23.953125 -7.0625 24.148438 -7.019531 24.328125 -6.9375 C 24.515625 -6.851562 24.648438 -6.769531 24.734375 -6.6875 C 24.429688 -5.625 24.160156 -4.71875 23.921875 -3.96875 C 23.679688 -3.226562 23.46875 -2.554688 23.28125 -1.953125 C 23.101562 -1.347656 22.929688 -0.695312 22.765625 0 L 2.1875 0 C 1.957031 0 1.75 -0.0664062 1.5625 -0.203125 C 1.382812 -0.347656 1.34375 -0.476562 1.4375 -0.59375 L 18.890625 -25.703125 Z M 8.875 -25.703125 "/></g></g></g><g fill="#000000" fill-opacity="1"><g transform="translate(192.692456, 267.632253)"><g><path d="M 3.90625 -5.71875 C 3.90625 -5.71875 4.039062 -6.0625 4.3125 -6.75 C 4.582031 -7.4375 4.941406 -8.367188 5.390625 -9.546875 C 5.835938 -10.722656 6.347656 -12.035156 6.921875 -13.484375 C 7.492188 -14.929688 8.070312 -16.414062 8.65625 -17.9375 C 9.25 -19.46875 9.816406 -20.9375 10.359375 -22.34375 C 10.910156 -23.75 11.398438 -24.984375 11.828125 -26.046875 C 11.941406 -26.273438 12.1875 -26.523438 12.5625 -26.796875 C 12.9375 -27.078125 13.222656 -27.21875 13.421875 -27.21875 C 13.472656 -27.21875 13.503906 -27.210938 13.515625 -27.203125 C 13.535156 -27.191406 13.578125 -27.171875 13.640625 -27.140625 L 22 -5.171875 C 22.625 -3.546875 22.976562 -2.648438 23.0625 -2.484375 C 23.195312 -2.171875 23.46875 -1.898438 23.875 -1.671875 C 24.28125 -1.453125 24.6875 -1.289062 25.09375 -1.1875 C 25.5 -1.09375 25.757812 -1.046875 25.875 -1.046875 C 25.988281 -0.910156 26.03125 -0.691406 26 -0.390625 C 25.976562 -0.0976562 25.953125 0.0703125 25.921875 0.125 C 25.109375 0.0703125 24.378906 0.0234375 23.734375 -0.015625 C 23.085938 -0.0546875 22.316406 -0.078125 21.421875 -0.078125 C 20.460938 -0.078125 19.664062 -0.0546875 19.03125 -0.015625 C 18.40625 0.0234375 17.613281 0.0703125 16.65625 0.125 C 16.550781 0.0078125 16.503906 -0.1875 16.515625 -0.46875 C 16.523438 -0.75 16.585938 -0.941406 16.703125 -1.046875 C 16.953125 -1.046875 17.34375 -1.09375 17.875 -1.1875 C 18.414062 -1.289062 18.785156 -1.425781 18.984375 -1.59375 C 19.085938 -1.707031 19.140625 -1.90625 19.140625 -2.1875 C 19.140625 -2.4375 19.046875 -2.863281 18.859375 -3.46875 C 18.679688 -4.070312 18.453125 -4.75 18.171875 -5.5 C 17.890625 -6.257812 17.609375 -7 17.328125 -7.71875 C 17.054688 -8.4375 16.828125 -9.023438 16.640625 -9.484375 C 16.460938 -9.953125 16.375 -10.1875 16.375 -10.1875 C 16.375 -10.1875 16.34375 -10.210938 16.28125 -10.265625 C 16.226562 -10.316406 16.171875 -10.34375 16.109375 -10.34375 C 15.691406 -10.375 15.175781 -10.390625 14.5625 -10.390625 C 13.945312 -10.390625 13.367188 -10.390625 12.828125 -10.390625 C 12.691406 -10.390625 12.550781 -10.390625 12.40625 -10.390625 C 12.269531 -10.390625 12.144531 -10.390625 12.03125 -10.390625 C 11.1875 -10.390625 10.46875 -10.378906 9.875 -10.359375 C 9.289062 -10.347656 8.535156 -10.316406 7.609375 -10.265625 C 7.585938 -10.265625 7.546875 -10.242188 7.484375 -10.203125 C 7.429688 -10.160156 7.40625 -10.140625 7.40625 -10.140625 C 7.40625 -10.140625 7.300781 -9.859375 7.09375 -9.296875 C 6.882812 -8.734375 6.628906 -8.066406 6.328125 -7.296875 C 6.035156 -6.523438 5.773438 -5.804688 5.546875 -5.140625 C 5.296875 -4.429688 5.132812 -3.835938 5.0625 -3.359375 C 5 -2.890625 4.96875 -2.515625 4.96875 -2.234375 C 4.96875 -1.921875 5.179688 -1.671875 5.609375 -1.484375 C 6.046875 -1.304688 6.492188 -1.1875 6.953125 -1.125 C 7.421875 -1.070312 7.710938 -1.046875 7.828125 -1.046875 C 7.878906 -0.992188 7.921875 -0.816406 7.953125 -0.515625 C 7.984375 -0.222656 7.96875 -0.0078125 7.90625 0.125 C 7.375 0.09375 6.914062 0.0625 6.53125 0.03125 C 6.15625 0.0078125 5.78125 -0.0078125 5.40625 -0.03125 C 5.03125 -0.0625 4.53125 -0.078125 3.90625 -0.078125 C 3.289062 -0.078125 2.769531 -0.0625 2.34375 -0.03125 C 1.925781 -0.0078125 1.507812 0.0078125 1.09375 0.03125 C 0.675781 0.0625 0.144531 0.09375 -0.5 0.125 C -0.5625 0.0703125 -0.59375 -0.0976562 -0.59375 -0.390625 C -0.59375 -0.691406 -0.5625 -0.910156 -0.5 -1.046875 C -0.25 -1.046875 0.175781 -1.109375 0.78125 -1.234375 C 1.382812 -1.367188 1.785156 -1.570312 1.984375 -1.84375 C 2.398438 -2.382812 2.753906 -2.984375 3.046875 -3.640625 C 3.347656 -4.296875 3.632812 -4.988281 3.90625 -5.71875 Z M 11.953125 -22.265625 L 8.203125 -12.25 C 8.203125 -12.25 8.207031 -12.21875 8.21875 -12.15625 C 8.238281 -12.101562 8.265625 -12.078125 8.296875 -12.078125 C 8.828125 -12.046875 9.460938 -12.023438 10.203125 -12.015625 C 10.941406 -12.003906 11.539062 -12 12 -12 C 12.632812 -12 13.210938 -12.007812 13.734375 -12.03125 C 14.253906 -12.0625 14.820312 -12.09375 15.4375 -12.125 C 15.5 -12.125 15.535156 -12.15625 15.546875 -12.21875 C 15.554688 -12.289062 15.5625 -12.328125 15.5625 -12.328125 Z M 11.953125 -22.265625 "/></g></g></g><g fill="#000000" fill-opacity="1"><g transform="translate(225.724142, 267.632253)"><g><path d="M 12.671875 -27.0625 C 15.671875 -27.0625 18.25 -26.476562 20.40625 -25.3125 C 22.5625 -24.144531 24.210938 -22.554688 25.359375 -20.546875 C 26.515625 -18.546875 27.09375 -16.269531 27.09375 -13.71875 C 27.09375 -11.976562 26.851562 -10.28125 26.375 -8.625 C 25.90625 -6.96875 25.101562 -5.476562 23.96875 -4.15625 C 22.832031 -2.84375 21.296875 -1.800781 19.359375 -1.03125 C 17.421875 -0.257812 15.007812 0.125 12.125 0.125 L 1.84375 0.125 C 1.738281 0.0078125 1.691406 -0.1875 1.703125 -0.46875 C 1.710938 -0.75 1.757812 -0.941406 1.84375 -1.046875 C 2.019531 -1.046875 2.332031 -1.066406 2.78125 -1.109375 C 3.226562 -1.148438 3.65625 -1.226562 4.0625 -1.34375 C 4.46875 -1.457031 4.6875 -1.582031 4.71875 -1.71875 C 4.820312 -2.0625 4.878906 -2.5 4.890625 -3.03125 C 4.910156 -3.5625 4.921875 -4.132812 4.921875 -4.75 L 4.921875 -22.296875 C 4.921875 -22.921875 4.910156 -23.503906 4.890625 -24.046875 C 4.878906 -24.597656 4.820312 -25.039062 4.71875 -25.375 C 4.6875 -25.539062 4.46875 -25.664062 4.0625 -25.75 C 3.65625 -25.832031 3.226562 -25.894531 2.78125 -25.9375 C 2.332031 -25.976562 2.019531 -26 1.84375 -26 C 1.757812 -26.113281 1.710938 -26.3125 1.703125 -26.59375 C 1.691406 -26.875 1.738281 -27.070312 1.84375 -27.1875 C 2.6875 -27.15625 3.515625 -27.117188 4.328125 -27.078125 C 5.140625 -27.035156 5.941406 -27.015625 6.734375 -27.015625 C 7.546875 -27.015625 8.507812 -27.019531 9.625 -27.03125 C 10.75 -27.050781 11.765625 -27.0625 12.671875 -27.0625 Z M 8.546875 -22.21875 L 8.546875 -4.71875 C 8.546875 -4.519531 8.546875 -4.203125 8.546875 -3.765625 C 8.546875 -3.328125 8.566406 -2.90625 8.609375 -2.5 C 8.648438 -2.09375 8.695312 -1.847656 8.75 -1.765625 C 8.914062 -1.546875 9.328125 -1.390625 9.984375 -1.296875 C 10.648438 -1.210938 11.363281 -1.171875 12.125 -1.171875 C 14.082031 -1.171875 15.878906 -1.59375 17.515625 -2.4375 C 19.160156 -3.28125 20.488281 -4.5625 21.5 -6.28125 C 22.507812 -8.007812 23.015625 -10.207031 23.015625 -12.875 C 23.015625 -15.207031 22.695312 -17.1875 22.0625 -18.8125 C 21.4375 -20.4375 20.582031 -21.757812 19.5 -22.78125 C 18.425781 -23.8125 17.207031 -24.554688 15.84375 -25.015625 C 14.476562 -25.472656 13.054688 -25.703125 11.578125 -25.703125 C 11.398438 -25.703125 11.085938 -25.695312 10.640625 -25.6875 C 10.191406 -25.675781 9.769531 -25.640625 9.375 -25.578125 C 8.988281 -25.523438 8.765625 -25.425781 8.703125 -25.28125 C 8.617188 -25.007812 8.570312 -24.640625 8.5625 -24.171875 C 8.550781 -23.710938 8.546875 -23.226562 8.546875 -22.71875 C 8.546875 -22.632812 8.546875 -22.550781 8.546875 -22.46875 C 8.546875 -22.382812 8.546875 -22.300781 8.546875 -22.21875 Z M 8.546875 -22.21875 "/></g></g></g><g fill="#000000" fill-opacity="1"><g transform="translate(262.164011, 267.632253)"><g><path d="M 15.3125 -27.390625 C 17.132812 -27.390625 18.851562 -27.050781 20.46875 -26.375 C 22.082031 -25.707031 23.503906 -24.75 24.734375 -23.5 C 25.972656 -22.25 26.945312 -20.773438 27.65625 -19.078125 C 28.375 -17.378906 28.734375 -15.507812 28.734375 -13.46875 C 28.734375 -11.53125 28.375 -9.722656 27.65625 -8.046875 C 26.945312 -6.378906 25.972656 -4.90625 24.734375 -3.625 C 23.503906 -2.351562 22.082031 -1.359375 20.46875 -0.640625 C 18.851562 0.0664062 17.132812 0.421875 15.3125 0.421875 C 13.519531 0.421875 11.816406 0.0859375 10.203125 -0.578125 C 8.585938 -1.253906 7.171875 -2.21875 5.953125 -3.46875 C 4.734375 -4.71875 3.769531 -6.191406 3.0625 -7.890625 C 2.363281 -9.585938 2.015625 -11.445312 2.015625 -13.46875 C 2.015625 -15.40625 2.363281 -17.210938 3.0625 -18.890625 C 3.769531 -20.578125 4.734375 -22.054688 5.953125 -23.328125 C 7.171875 -24.609375 8.585938 -25.601562 10.203125 -26.3125 C 11.816406 -27.03125 13.519531 -27.390625 15.3125 -27.390625 Z M 14.734375 -26 C 13.179688 -26 11.859375 -25.65625 10.765625 -24.96875 C 9.671875 -24.28125 8.78125 -23.375 8.09375 -22.25 C 7.40625 -21.132812 6.898438 -19.890625 6.578125 -18.515625 C 6.253906 -17.140625 6.09375 -15.765625 6.09375 -14.390625 C 6.09375 -12.796875 6.3125 -11.203125 6.75 -9.609375 C 7.1875 -8.023438 7.828125 -6.582031 8.671875 -5.28125 C 9.515625 -3.976562 10.546875 -2.929688 11.765625 -2.140625 C 12.984375 -1.359375 14.390625 -0.96875 15.984375 -0.96875 C 17.523438 -0.96875 18.84375 -1.3125 19.9375 -2 C 21.039062 -2.6875 21.941406 -3.601562 22.640625 -4.75 C 23.335938 -5.90625 23.847656 -7.175781 24.171875 -8.5625 C 24.492188 -9.945312 24.65625 -11.328125 24.65625 -12.703125 C 24.65625 -14.304688 24.4375 -15.890625 24 -17.453125 C 23.570312 -19.023438 22.925781 -20.457031 22.0625 -21.75 C 21.207031 -23.039062 20.171875 -24.070312 18.953125 -24.84375 C 17.734375 -25.613281 16.328125 -26 14.734375 -26 Z M 14.734375 -26 "/></g></g></g><g fill="#000000" fill-opacity="1"><g transform="translate(300.160697, 267.632253)"><g><path d="M 10.734375 -27.34375 C 11.597656 -27.34375 12.316406 -27.296875 12.890625 -27.203125 C 13.472656 -27.109375 14.0625 -26.972656 14.65625 -26.796875 C 15.257812 -26.628906 16.015625 -26.4375 16.921875 -26.21875 C 17.085938 -25.144531 17.21875 -24.039062 17.3125 -22.90625 C 17.414062 -21.769531 17.476562 -20.921875 17.5 -20.359375 C 17.53125 -20.222656 17.429688 -20.117188 17.203125 -20.046875 C 16.984375 -19.972656 16.800781 -19.9375 16.65625 -19.9375 C 16.46875 -19.9375 16.316406 -19.992188 16.203125 -20.109375 C 16.140625 -20.617188 15.96875 -21.207031 15.6875 -21.875 C 15.414062 -22.550781 15.03125 -23.195312 14.53125 -23.8125 C 14.039062 -24.425781 13.453125 -24.9375 12.765625 -25.34375 C 12.078125 -25.757812 11.300781 -25.96875 10.4375 -25.96875 C 9.3125 -25.96875 8.425781 -25.726562 7.78125 -25.25 C 7.132812 -24.769531 6.671875 -24.175781 6.390625 -23.46875 C 6.109375 -22.769531 5.96875 -22.085938 5.96875 -21.421875 C 5.96875 -20.328125 6.253906 -19.414062 6.828125 -18.6875 C 7.410156 -17.957031 8.140625 -17.3125 9.015625 -16.75 C 9.898438 -16.1875 10.796875 -15.609375 11.703125 -15.015625 C 12.367188 -14.597656 13.109375 -14.132812 13.921875 -13.625 C 14.734375 -13.125 15.519531 -12.566406 16.28125 -11.953125 C 17.039062 -11.335938 17.65625 -10.628906 18.125 -9.828125 C 18.601562 -9.023438 18.84375 -8.117188 18.84375 -7.109375 C 18.84375 -5.617188 18.429688 -4.304688 17.609375 -3.171875 C 16.785156 -2.035156 15.71875 -1.148438 14.40625 -0.515625 C 13.101562 0.109375 11.722656 0.421875 10.265625 0.421875 C 8.890625 0.421875 7.5625 0.269531 6.28125 -0.03125 C 5.007812 -0.34375 3.867188 -0.597656 2.859375 -0.796875 C 2.691406 -1.609375 2.546875 -2.476562 2.421875 -3.40625 C 2.296875 -4.332031 2.195312 -5.144531 2.125 -5.84375 C 2.050781 -6.550781 2.015625 -6.988281 2.015625 -7.15625 C 2.160156 -7.289062 2.320312 -7.40625 2.5 -7.5 C 2.6875 -7.601562 2.878906 -7.65625 3.078125 -7.65625 C 3.328125 -7.65625 3.476562 -7.53125 3.53125 -7.28125 C 3.613281 -6.882812 3.785156 -6.34375 4.046875 -5.65625 C 4.316406 -4.96875 4.710938 -4.257812 5.234375 -3.53125 C 5.753906 -2.800781 6.425781 -2.191406 7.25 -1.703125 C 8.082031 -1.210938 9.113281 -0.96875 10.34375 -0.96875 C 11.664062 -0.96875 12.816406 -1.410156 13.796875 -2.296875 C 14.785156 -3.179688 15.28125 -4.421875 15.28125 -6.015625 C 15.28125 -7.171875 15.019531 -8.066406 14.5 -8.703125 C 13.976562 -9.347656 13.300781 -9.910156 12.46875 -10.390625 C 11.644531 -10.867188 10.753906 -11.375 9.796875 -11.90625 C 8.765625 -12.519531 7.691406 -13.195312 6.578125 -13.9375 C 5.472656 -14.6875 4.539062 -15.566406 3.78125 -16.578125 C 3.03125 -17.585938 2.65625 -18.78125 2.65625 -20.15625 C 2.65625 -21.613281 3.039062 -22.878906 3.8125 -23.953125 C 4.582031 -25.035156 5.582031 -25.867188 6.8125 -26.453125 C 8.050781 -27.046875 9.359375 -27.34375 10.734375 -27.34375 Z M 10.734375 -27.34375 "/></g></g></g></svg>